<svg width="577" height="155" viewBox="0 0 577 155" fill="none" xmlns="http://www.w3.org/2000/svg">
<g filter="url(#filter0_d_1310_15)">
<path d="M29.512 53.008C21.4 53.008 15.208 50.752 10.936 46.24C6.712 41.728 4.6 35.32 4.6 27.016C4.6 22.888 5.248 19.216 6.544 16C7.84 12.736 9.616 10 11.872 7.792C14.128 5.536 16.816 3.832 19.936 2.68C23.056 1.528 26.44 0.951996 30.088 0.951996C32.2 0.951996 34.12 1.12 35.848 1.456C37.576 1.744 39.088 2.104 40.384 2.536C41.68 2.92 42.76 3.328 43.624 3.76C44.488 4.192 45.112 4.528 45.496 4.768L42.256 13.84C40.72 13.024 38.92 12.328 36.856 11.752C34.84 11.176 32.536 10.888 29.944 10.888C28.216 10.888 26.512 11.176 24.832 11.752C23.2 12.328 21.736 13.264 20.44 14.56C19.192 15.808 18.184 17.44 17.416 19.456C16.648 21.472 16.264 23.92 16.264 26.8C16.264 29.104 16.504 31.264 16.984 33.28C17.512 35.248 18.328 36.952 19.432 38.392C20.584 39.832 22.072 40.984 23.896 41.848C25.72 42.664 27.928 43.072 30.52 43.072C32.152 43.072 33.616 42.976 34.912 42.784C36.208 42.592 37.36 42.376 38.368 42.136C39.376 41.848 40.264 41.536 41.032 41.2C41.8 40.864 42.496 40.552 43.12 40.264L46.216 49.264C44.632 50.224 42.4 51.088 39.52 51.856C36.64 52.624 33.304 53.008 29.512 53.008ZM69.0635 1.528C76.5515 1.528 82.2875 2.872 86.2715 5.56C90.2555 8.2 92.2475 12.328 92.2475 17.944C92.2475 21.448 91.4315 24.304 89.7995 26.512C88.2155 28.672 85.9115 30.376 82.8875 31.624C83.8955 32.872 84.9515 34.312 86.0555 35.944C87.1595 37.528 88.2395 39.208 89.2955 40.984C90.3995 42.712 91.4555 44.536 92.4635 46.456C93.4715 48.328 94.4075 50.176 95.2715 52H82.6715C81.7595 50.368 80.8235 48.712 79.8635 47.032C78.9515 45.352 77.9915 43.72 76.9835 42.136C76.0235 40.552 75.0635 39.064 74.1035 37.672C73.1435 36.232 72.1835 34.936 71.2235 33.784H65.6795V52H54.4475V2.824C56.8955 2.344 59.4155 2.008 62.0075 1.816C64.6475 1.624 66.9995 1.528 69.0635 1.528ZM69.7115 11.104C68.8955 11.104 68.1515 11.128 67.4795 11.176C66.8555 11.224 66.2555 11.272 65.6795 11.32V24.856H68.8475C73.0715 24.856 76.0955 24.328 77.9195 23.272C79.7435 22.216 80.6555 20.416 80.6555 17.872C80.6555 15.424 79.7195 13.696 77.8475 12.688C76.0235 11.632 73.3115 11.104 69.7115 11.104ZM103.471 52V2.104H137.167V11.536H114.703V21.328H134.647V30.544H114.703V42.568H138.823V52H103.471ZM181.543 52C181.015 50.272 180.415 48.496 179.743 46.672C179.119 44.848 178.495 43.024 177.871 41.2H158.431C157.807 43.024 157.159 44.848 156.487 46.672C155.863 48.496 155.287 50.272 154.759 52H143.095C144.967 46.624 146.743 41.656 148.423 37.096C150.103 32.536 151.735 28.24 153.319 24.208C154.951 20.176 156.535 16.36 158.071 12.76C159.655 9.112 161.287 5.56 162.967 2.104H173.695C175.327 5.56 176.935 9.112 178.519 12.76C180.103 16.36 181.687 20.176 183.271 24.208C184.903 28.24 186.559 32.536 188.239 37.096C189.919 41.656 191.695 46.624 193.567 52H181.543ZM168.079 13.408C167.839 14.128 167.479 15.112 166.999 16.36C166.519 17.608 165.967 19.048 165.343 20.68C164.719 22.312 164.023 24.112 163.255 26.08C162.535 28.048 161.791 30.112 161.023 32.272H175.207C174.439 30.112 173.695 28.048 172.975 26.08C172.255 24.112 171.559 22.312 170.887 20.68C170.263 19.048 169.711 17.608 169.231 16.36C168.751 15.112 168.367 14.128 168.079 13.408ZM232.127 2.104V11.68H217.079V52H205.847V11.68H190.799V2.104H232.127ZM240.346 52V2.104H274.042V11.536H251.578V21.328H271.522V30.544H251.578V42.568H275.698V52H240.346ZM29.512 147.008C21.4 147.008 15.208 144.752 10.936 140.24C6.712 135.728 4.6 129.32 4.6 121.016C4.6 116.888 5.248 113.216 6.544 110C7.84 106.736 9.616 104 11.872 101.792C14.128 99.536 16.816 97.832 19.936 96.68C23.056 95.528 26.44 94.952 30.088 94.952C32.2 94.952 34.12 95.12 35.848 95.456C37.576 95.744 39.088 96.104 40.384 96.536C41.68 96.92 42.76 97.328 43.624 97.76C44.488 98.192 45.112 98.528 45.496 98.768L42.256 107.84C40.72 107.024 38.92 106.328 36.856 105.752C34.84 105.176 32.536 104.888 29.944 104.888C28.216 104.888 26.512 105.176 24.832 105.752C23.2 106.328 21.736 107.264 20.44 108.56C19.192 109.808 18.184 111.44 17.416 113.456C16.648 115.472 16.264 117.92 16.264 120.8C16.264 123.104 16.504 125.264 16.984 127.28C17.512 129.248 18.328 130.952 19.432 132.392C20.584 133.832 22.072 134.984 23.896 135.848C25.72 136.664 27.928 137.072 30.52 137.072C32.152 137.072 33.616 136.976 34.912 136.784C36.208 136.592 37.36 136.376 38.368 136.136C39.376 135.848 40.264 135.536 41.032 135.2C41.8 134.864 42.496 134.552 43.12 134.264L46.216 143.264C44.632 144.224 42.4 145.088 39.52 145.856C36.64 146.624 33.304 147.008 29.512 147.008ZM62.0514 121.016C62.0514 123.464 62.3394 125.672 62.9154 127.64C63.5394 129.608 64.4034 131.312 65.5074 132.752C66.6594 134.144 68.0514 135.224 69.6834 135.992C71.3154 136.76 73.1874 137.144 75.2994 137.144C77.3634 137.144 79.2114 136.76 80.8434 135.992C82.5234 135.224 83.9154 134.144 85.0194 132.752C86.1714 131.312 87.0354 129.608 87.6114 127.64C88.2354 125.672 88.5474 123.464 88.5474 121.016C88.5474 118.568 88.2354 116.36 87.6114 114.392C87.0354 112.376 86.1714 110.672 85.0194 109.28C83.9154 107.84 82.5234 106.736 80.8434 105.968C79.2114 105.2 77.3634 104.816 75.2994 104.816C73.1874 104.816 71.3154 105.224 69.6834 106.04C68.0514 106.808 66.6594 107.912 65.5074 109.352C64.4034 110.744 63.5394 112.448 62.9154 114.464C62.3394 116.432 62.0514 118.616 62.0514 121.016ZM100.139 121.016C100.139 125.288 99.4914 129.056 98.1954 132.32C96.9474 135.536 95.2194 138.248 93.0114 140.456C90.8034 142.616 88.1634 144.248 85.0914 145.352C82.0674 146.456 78.8034 147.008 75.2994 147.008C71.8914 147.008 68.6754 146.456 65.6514 145.352C62.6274 144.248 59.9874 142.616 57.7314 140.456C55.4754 138.248 53.6994 135.536 52.4034 132.32C51.1074 129.056 50.4594 125.288 50.4594 121.016C50.4594 116.744 51.1314 113 52.4754 109.784C53.8194 106.52 55.6194 103.784 57.8754 101.576C60.1794 99.368 62.8194 97.712 65.7954 96.608C68.8194 95.504 71.9874 94.952 75.2994 94.952C78.7074 94.952 81.9234 95.504 84.9474 96.608C87.9714 97.712 90.6114 99.368 92.8674 101.576C95.1234 103.784 96.8994 106.52 98.1954 109.784C99.4914 113 100.139 116.744 100.139 121.016ZM143.982 146C140.766 140.288 137.286 134.648 133.542 129.08C129.798 123.512 125.814 118.256 121.59 113.312V146H110.502V96.104H119.646C121.23 97.688 122.982 99.632 124.902 101.936C126.822 104.24 128.766 106.712 130.734 109.352C132.75 111.944 134.742 114.656 136.71 117.488C138.678 120.272 140.526 122.96 142.254 125.552V96.104H153.414V146H143.982ZM179.532 137.432C181.116 137.432 182.412 137.312 183.42 137.072C184.476 136.784 185.316 136.424 185.94 135.992C186.564 135.512 186.996 134.96 187.236 134.336C187.476 133.712 187.596 133.016 187.596 132.248C187.596 130.616 186.828 129.272 185.292 128.216C183.756 127.112 181.116 125.936 177.372 124.688C175.74 124.112 174.108 123.464 172.476 122.744C170.844 121.976 169.38 121.04 168.084 119.936C166.788 118.784 165.732 117.416 164.916 115.832C164.1 114.2 163.692 112.232 163.692 109.928C163.692 107.624 164.124 105.56 164.988 103.736C165.852 101.864 167.076 100.28 168.66 98.984C170.244 97.688 172.164 96.704 174.42 96.032C176.676 95.312 179.22 94.952 182.052 94.952C185.412 94.952 188.316 95.312 190.764 96.032C193.212 96.752 195.228 97.544 196.812 98.408L193.572 107.264C192.18 106.544 190.62 105.92 188.892 105.392C187.212 104.816 185.172 104.528 182.772 104.528C180.084 104.528 178.14 104.912 176.94 105.68C175.788 106.4 175.212 107.528 175.212 109.064C175.212 109.976 175.428 110.744 175.86 111.368C176.292 111.992 176.892 112.568 177.66 113.096C178.476 113.576 179.388 114.032 180.396 114.464C181.452 114.848 182.604 115.256 183.852 115.688C186.444 116.648 188.7 117.608 190.62 118.568C192.54 119.48 194.124 120.56 195.372 121.808C196.668 123.056 197.628 124.52 198.252 126.2C198.876 127.88 199.188 129.92 199.188 132.32C199.188 136.976 197.556 140.6 194.292 143.192C191.028 145.736 186.108 147.008 179.532 147.008C177.324 147.008 175.332 146.864 173.556 146.576C171.78 146.336 170.196 146.024 168.804 145.64C167.46 145.256 166.284 144.848 165.276 144.416C164.316 143.984 163.5 143.576 162.828 143.192L165.996 134.264C167.484 135.08 169.308 135.824 171.468 136.496C173.676 137.12 176.364 137.432 179.532 137.432ZM244.432 96.104V105.68H229.384V146H218.152V105.68H203.104V96.104H244.432ZM267.267 95.528C274.755 95.528 280.491 96.872 284.475 99.56C288.459 102.2 290.451 106.328 290.451 111.944C290.451 115.448 289.635 118.304 288.003 120.512C286.419 122.672 284.115 124.376 281.091 125.624C282.099 126.872 283.155 128.312 284.259 129.944C285.363 131.528 286.443 133.208 287.499 134.984C288.603 136.712 289.659 138.536 290.667 140.456C291.675 142.328 292.611 144.176 293.475 146H280.875C279.963 144.368 279.027 142.712 278.067 141.032C277.155 139.352 276.195 137.72 275.187 136.136C274.227 134.552 273.267 133.064 272.307 131.672C271.347 130.232 270.387 128.936 269.427 127.784H263.883V146H252.651V96.824C255.099 96.344 257.619 96.008 260.211 95.816C262.851 95.624 265.203 95.528 267.267 95.528ZM267.915 105.104C267.099 105.104 266.355 105.128 265.683 105.176C265.059 105.224 264.459 105.272 263.883 105.32V118.856H267.051C271.275 118.856 274.299 118.328 276.123 117.272C277.947 116.216 278.859 114.416 278.859 111.872C278.859 109.424 277.923 107.696 276.051 106.688C274.227 105.632 271.515 105.104 267.915 105.104ZM320.624 147.008C317.12 147.008 314.096 146.528 311.552 145.568C309.008 144.56 306.896 143.192 305.216 141.464C303.584 139.688 302.36 137.6 301.544 135.2C300.776 132.752 300.392 130.064 300.392 127.136V96.104H311.624V126.2C311.624 128.216 311.84 129.944 312.272 131.384C312.752 132.776 313.376 133.928 314.144 134.84C314.96 135.704 315.92 136.328 317.024 136.712C318.176 137.096 319.424 137.288 320.768 137.288C323.504 137.288 325.712 136.448 327.392 134.768C329.12 133.088 329.984 130.232 329.984 126.2V96.104H341.216V127.136C341.216 130.064 340.808 132.752 339.992 135.2C339.176 137.648 337.928 139.76 336.248 141.536C334.568 143.264 332.432 144.608 329.84 145.568C327.248 146.528 324.176 147.008 320.624 147.008ZM375.77 147.008C367.658 147.008 361.466 144.752 357.194 140.24C352.97 135.728 350.858 129.32 350.858 121.016C350.858 116.888 351.506 113.216 352.802 110C354.098 106.736 355.874 104 358.13 101.792C360.386 99.536 363.074 97.832 366.194 96.68C369.314 95.528 372.698 94.952 376.346 94.952C378.458 94.952 380.378 95.12 382.106 95.456C383.834 95.744 385.346 96.104 386.642 96.536C387.938 96.92 389.018 97.328 389.882 97.76C390.746 98.192 391.37 98.528 391.754 98.768L388.514 107.84C386.978 107.024 385.178 106.328 383.114 105.752C381.098 105.176 378.794 104.888 376.202 104.888C374.474 104.888 372.77 105.176 371.09 105.752C369.458 106.328 367.994 107.264 366.698 108.56C365.45 109.808 364.442 111.44 363.674 113.456C362.906 115.472 362.522 117.92 362.522 120.8C362.522 123.104 362.762 125.264 363.242 127.28C363.77 129.248 364.586 130.952 365.69 132.392C366.842 133.832 368.33 134.984 370.154 135.848C371.978 136.664 374.186 137.072 376.778 137.072C378.41 137.072 379.874 136.976 381.17 136.784C382.466 136.592 383.618 136.376 384.626 136.136C385.634 135.848 386.522 135.536 387.29 135.2C388.058 134.864 388.754 134.552 389.378 134.264L392.474 143.264C390.89 144.224 388.658 145.088 385.778 145.856C382.898 146.624 379.562 147.008 375.77 147.008ZM439.26 96.104V105.68H424.212V146H412.98V105.68H397.932V96.104H439.26ZM447.479 96.104H458.711V146H447.479V96.104ZM480.692 121.016C480.692 123.464 480.98 125.672 481.556 127.64C482.18 129.608 483.044 131.312 484.148 132.752C485.3 134.144 486.692 135.224 488.324 135.992C489.956 136.76 491.828 137.144 493.94 137.144C496.004 137.144 497.852 136.76 499.484 135.992C501.164 135.224 502.556 134.144 503.66 132.752C504.812 131.312 505.676 129.608 506.252 127.64C506.876 125.672 507.188 123.464 507.188 121.016C507.188 118.568 506.876 116.36 506.252 114.392C505.676 112.376 504.812 110.672 503.66 109.28C502.556 107.84 501.164 106.736 499.484 105.968C497.852 105.2 496.004 104.816 493.94 104.816C491.828 104.816 489.956 105.224 488.324 106.04C486.692 106.808 485.3 107.912 484.148 109.352C483.044 110.744 482.18 112.448 481.556 114.464C480.98 116.432 480.692 118.616 480.692 121.016ZM518.78 121.016C518.78 125.288 518.132 129.056 516.836 132.32C515.588 135.536 513.86 138.248 511.652 140.456C509.444 142.616 506.804 144.248 503.732 145.352C500.708 146.456 497.444 147.008 493.94 147.008C490.532 147.008 487.316 146.456 484.292 145.352C481.268 144.248 478.628 142.616 476.372 140.456C474.116 138.248 472.34 135.536 471.044 132.32C469.748 129.056 469.1 125.288 469.1 121.016C469.1 116.744 469.772 113 471.116 109.784C472.46 106.52 474.26 103.784 476.516 101.576C478.82 99.368 481.46 97.712 484.436 96.608C487.46 95.504 490.628 94.952 493.94 94.952C497.348 94.952 500.564 95.504 503.588 96.608C506.612 97.712 509.252 99.368 511.508 101.576C513.764 103.784 515.54 106.52 516.836 109.784C518.132 113 518.78 116.744 518.78 121.016ZM562.623 146C559.407 140.288 555.927 134.648 552.183 129.08C548.439 123.512 544.455 118.256 540.231 113.312V146H529.143V96.104H538.287C539.871 97.688 541.623 99.632 543.543 101.936C545.463 104.24 547.407 106.712 549.375 109.352C551.391 111.944 553.383 114.656 555.351 117.488C557.319 120.272 559.167 122.96 560.895 125.552V96.104H572.055V146H562.623Z" fill="white"/>
<path d="M315.072 52C313.68 49.216 312.144 46.408 310.464 43.576C308.832 40.696 306.936 37.768 304.776 34.792C304.104 35.656 303.24 36.856 302.184 38.392C301.176 39.928 300.144 41.56 299.088 43.288C298.08 45.016 297.12 46.672 296.208 48.256C295.296 49.84 294.624 51.088 294.192 52H281.376C283.488 48.112 285.936 44.032 288.72 39.76C291.552 35.488 294.696 30.952 298.152 26.152L282.096 2.104H295.704L305.424 17.656L314.928 2.104H327.744L311.904 26.296C315.936 31.528 319.32 36.376 322.056 40.84C324.792 45.256 326.952 48.976 328.536 52H315.072Z" fill="#FF5A30"/>
</g>
<defs>
<filter id="filter0_d_1310_15" x="0.599609" y="0.952148" width="575.455" height="154.056" filterUnits="userSpaceOnUse" color-interpolation-filters="sRGB">
<feFlood flood-opacity="0" result="BackgroundImageFix"/>
<feColorMatrix in="SourceAlpha" type="matrix" values="0 0 0 0 0 0 0 0 0 0 0 0 0 0 0 0 0 0 127 0" result="hardAlpha"/>
<feOffset dy="4"/>
<feGaussianBlur stdDeviation="2"/>
<feComposite in2="hardAlpha" operator="out"/>
<feColorMatrix type="matrix" values="0 0 0 0 0 0 0 0 0 0 0 0 0 0 0 0 0 0 0.25 0"/>
<feBlend mode="normal" in2="BackgroundImageFix" result="effect1_dropShadow_1310_15"/>
<feBlend mode="normal" in="SourceGraphic" in2="effect1_dropShadow_1310_15" result="shape"/>
</filter>
</defs>
</svg>
